<?xml version="1.0" ?><svg viewBox="0 0 300 268.54" xmlns="http://www.w3.org/2000/svg"><defs><style>.cls-1{fill:#696;}.cls-2{fill:#7f4834;}.cls-3{fill:#f16365;}</style></defs><title/><g data-name="Layer 2" id="Layer_2"><g id="ICON_7"><path class="cls-1" d="M186.71,5.52C157,16.32,151.6,39.36,151.6,39.36v.08S169.7,47.82,199.44,37,234.55,3.17,234.55,3.17V3.1S216.45-5.28,186.71,5.52Z"/><path class="cls-1" d="M124.42,18.95c23.23,10.7,26,29.63,26,29.63v.06S135.28,54.16,112,43.47,86,13.84,86,13.84v-.06S101.19,8.25,124.42,18.95Z"/><ellipse class="cls-2" cx="151.9" cy="70.81" rx="10.08" ry="46.95"/><ellipse class="cls-2" cx="150.13" cy="259.35" rx="19.19" ry="9.19"/><path class="cls-3" d="M230.58,47.81a66.17,66.17,0,0,0-20.32-3.16A65.18,65.18,0,0,0,162.4,64.27c-.56.56-1.11,1-1.67,1.51a19.33,19.33,0,0,1-10.73,4,19.33,19.33,0,0,1-10.73-4c-.55-.46-1.11-1-1.67-1.51A65.18,65.18,0,0,0,89.74,44.65a66.17,66.17,0,0,0-20.32,3.16S0,67.13,0,153.32,115.23,262.84,115.23,262.84l8.63,1.79a34,34,0,0,0,6.66.67,21.21,21.21,0,0,0,15.57-6.38,7.61,7.61,0,0,1,.63-.55,5.29,5.29,0,0,1,6.81,0,7.61,7.61,0,0,1,.63.55,21.21,21.21,0,0,0,15.57,6.38,63.64,63.64,0,0,0,7.38-.52l9.05-2.15S300,239.5,300,153.32,230.58,47.81,230.58,47.81Z"/></g></g></svg>